<svg xmlns="http://www.w3.org/2000/svg" version="1.1" xmlns:xlink="http://www.w3.org/1999/xlink" xmlns:svgjs="http://svgjs.dev/svgjs" viewBox="0 0 11.104912910573354 3.0284185733898488"><g transform="matrix(1,0,0,1,2.975793188349361,0.5116229230585609)"><rect width="11.104912910573354" height="11.104912910573354" x="-2.975793188349361" y="-4.549870091650313" fill="#ffffff"></rect><g><path d=" M 0.11325 0.30074999999999985 Q 0.1785 0.17849999999999988 0.2985 0.11024999999999985 Q 0.4185 0.041999999999999815 0.5745 0.041999999999999815 Q 0.7725 0.041999999999999815 0.9075 0.14774999999999983 Q 1.0425 0.25349999999999984 1.0815000000000001 0.43499999999999983 L 0.765 0.43499999999999983 Q 0.7365 0.3749999999999999 0.68625 0.3434999999999998 Q 0.636 0.31199999999999983 0.5700000000000001 0.31199999999999983 Q 0.468 0.31199999999999983 0.40725 0.3847499999999998 Q 0.34650000000000003 0.4574999999999999 0.34650000000000003 0.5789999999999998 Q 0.34650000000000003 0.7019999999999998 0.40725 0.7747499999999998 Q 0.468 0.8474999999999999 0.5700000000000001 0.8474999999999999 Q 0.636 0.8474999999999999 0.68625 0.8159999999999998 Q 0.7365 0.7844999999999999 0.765 0.7244999999999999 L 1.0815000000000001 0.7244999999999999 Q 1.0425 0.9059999999999999 0.9075 1.01175 Q 0.7725 1.1175 0.5745 1.1175 Q 0.4185 1.1175 0.2985 1.0492499999999998 Q 0.1785 0.9809999999999999 0.11325 0.8587499999999999 Q 0.048 0.7364999999999999 0.048 0.5789999999999998 Q 0.048 0.4229999999999998 0.11325 0.30074999999999985 M 1.5299934082031252 -2.220446049250313e-16 L 1.5299934082031252 1.1099999999999999 L 1.2359934082031252 1.1099999999999999 L 1.2359934082031252 -2.220446049250313e-16 L 1.5299934082031252 -2.220446049250313e-16 M 1.8787185058593752 1.0679999999999998 Q 1.7789685058593752 1.0154999999999998 1.7219685058593752 0.9179999999999999 Q 1.6649685058593753 0.8204999999999999 1.6649685058593753 0.6884999999999999 Q 1.6649685058593753 0.5579999999999998 1.7227185058593752 0.4604999999999999 Q 1.7804685058593752 0.3629999999999999 1.8802185058593752 0.3104999999999999 Q 1.9799685058593752 0.2579999999999999 2.105968505859375 0.2579999999999999 Q 2.231968505859375 0.2579999999999999 2.3317185058593752 0.3104999999999999 Q 2.4314685058593755 0.3629999999999999 2.4892185058593754 0.4604999999999999 Q 2.5469685058593754 0.5579999999999998 2.5469685058593754 0.6884999999999999 Q 2.5469685058593754 0.819 2.4892185058593754 0.9172499999999999 Q 2.4314685058593755 1.0154999999999998 2.330968505859375 1.0679999999999998 Q 2.2304685058593754 1.1204999999999998 2.1044685058593755 1.1204999999999998 Q 1.9784685058593752 1.1204999999999998 1.8787185058593752 1.0679999999999998 M 2.2072185058593754 0.8197499999999999 Q 2.248468505859375 0.7739999999999998 2.248468505859375 0.6884999999999999 Q 2.248468505859375 0.6029999999999999 2.2072185058593754 0.5579999999999998 Q 2.165968505859375 0.5129999999999999 2.105968505859375 0.5129999999999999 Q 2.045968505859375 0.5129999999999999 2.0054685058593753 0.5579999999999998 Q 1.9649685058593753 0.6029999999999999 1.9649685058593753 0.6884999999999999 Q 1.9649685058593753 0.7754999999999999 2.0039685058593752 0.8204999999999999 Q 2.0429685058593754 0.8654999999999999 2.1044685058593755 0.8654999999999999 Q 2.165968505859375 0.8654999999999999 2.2072185058593754 0.8197499999999999 M 3.4634479980468753 0.3577499999999999 Q 3.5489479980468754 0.4544999999999999 3.5489479980468754 0.6194999999999999 L 3.5489479980468754 1.1099999999999999 L 3.2549479980468754 1.1099999999999999 L 3.2549479980468754 0.6584999999999999 Q 3.2549479980468754 0.5864999999999999 3.2174479980468753 0.5452499999999999 Q 3.1799479980468752 0.5039999999999999 3.1169479980468755 0.5039999999999999 Q 3.050947998046875 0.5039999999999999 3.0134479980468756 0.5452499999999999 Q 2.9759479980468755 0.5864999999999999 2.9759479980468755 0.6584999999999999 L 2.9759479980468755 1.1099999999999999 L 2.6819479980468754 1.1099999999999999 L 2.6819479980468754 0.26849999999999985 L 2.9759479980468755 0.26849999999999985 L 2.9759479980468755 0.38849999999999985 Q 3.014947998046875 0.3314999999999999 3.0809479980468755 0.2962499999999999 Q 3.1469479980468753 0.2609999999999999 3.2324479980468754 0.2609999999999999 Q 3.377947998046875 0.2609999999999999 3.4634479980468753 0.3577499999999999 M 4.5254091796875 0.7484999999999999 L 3.9689091796875005 0.7484999999999999 Q 3.9734091796875006 0.8174999999999999 4.0071591796875 0.8512499999999998 Q 4.0409091796875005 0.8849999999999999 4.093409179687501 0.8849999999999999 Q 4.166909179687501 0.8849999999999999 4.1984091796875 0.819 L 4.511909179687501 0.819 Q 4.492409179687501 0.9059999999999999 4.4361591796875 0.9742499999999998 Q 4.3799091796875 1.0425 4.2944091796875 1.0815 Q 4.208909179687501 1.1204999999999998 4.1054091796875 1.1204999999999998 Q 3.9809091796875005 1.1204999999999998 3.8841591796875004 1.0679999999999998 Q 3.7874091796875007 1.0154999999999998 3.7326591796875004 0.9179999999999999 Q 3.6779091796875005 0.8204999999999999 3.6779091796875005 0.6884999999999999 Q 3.6779091796875005 0.5564999999999999 3.7319091796875004 0.4597499999999999 Q 3.7859091796875006 0.3629999999999999 3.8826591796875003 0.3104999999999999 Q 3.9794091796875004 0.2579999999999999 4.1054091796875 0.2579999999999999 Q 4.229909179687501 0.2579999999999999 4.325909179687501 0.30899999999999983 Q 4.421909179687501 0.3599999999999999 4.4759091796875 0.4552499999999998 Q 4.5299091796875 0.5504999999999999 4.5299091796875 0.6794999999999999 Q 4.5299091796875 0.7139999999999999 4.5254091796875 0.7484999999999999 M 4.229909179687501 0.6059999999999999 Q 4.229909179687501 0.5519999999999998 4.1939091796875 0.5212499999999999 Q 4.1579091796875005 0.4904999999999998 4.1039091796875 0.4904999999999998 Q 4.049909179687501 0.4904999999999998 4.0154091796875 0.5197499999999998 Q 3.9809091796875005 0.5489999999999998 3.9704091796875005 0.6059999999999999 L 4.229909179687501 0.6059999999999999 M 5.487700927734375 0.6592499999999999 Q 5.542450927734375 0.7304999999999999 5.542450927734375 0.8219999999999998 Q 5.542450927734375 0.9569999999999999 5.449450927734375 1.0334999999999999 Q 5.356450927734375 1.1099999999999999 5.188450927734375 1.1099999999999999 L 4.664950927734375 1.1099999999999999 L 4.664950927734375 0.05249999999999977 L 5.171950927734375 0.05249999999999977 Q 5.333950927734375 0.05249999999999977 5.426200927734375 0.12449999999999983 Q 5.518450927734375 0.1964999999999999 5.518450927734375 0.32699999999999985 Q 5.518450927734375 0.4199999999999998 5.469700927734375 0.48224999999999985 Q 5.420950927734375 0.5444999999999999 5.3399509277343755 0.5669999999999998 Q 5.4329509277343755 0.5879999999999999 5.487700927734375 0.6592499999999999 M 4.958950927734375 0.4724999999999998 L 5.107450927734375 0.4724999999999998 Q 5.218450927734375 0.4724999999999998 5.218450927734375 0.3809999999999999 Q 5.218450927734375 0.28649999999999987 5.107450927734375 0.28649999999999987 L 4.958950927734375 0.28649999999999987 L 4.958950927734375 0.4724999999999998 M 5.240950927734375 0.7799999999999998 Q 5.240950927734375 0.7319999999999999 5.211700927734375 0.7064999999999999 Q 5.182450927734375 0.6809999999999998 5.1284509277343755 0.6809999999999998 L 4.958950927734375 0.6809999999999998 L 4.958950927734375 0.8729999999999999 L 5.1299509277343756 0.8729999999999999 Q 5.240950927734375 0.8729999999999999 5.240950927734375 0.7799999999999998 M 6.467981689453125 0.3577499999999999 Q 6.553481689453125 0.4544999999999999 6.553481689453125 0.6194999999999999 L 6.553481689453125 1.1099999999999999 L 6.259481689453125 1.1099999999999999 L 6.259481689453125 0.6584999999999999 Q 6.259481689453125 0.5864999999999999 6.221981689453125 0.5452499999999999 Q 6.184481689453125 0.5039999999999999 6.121481689453125 0.5039999999999999 Q 6.055481689453125 0.5039999999999999 6.017981689453125 0.5452499999999999 Q 5.980481689453125 0.5864999999999999 5.980481689453125 0.6584999999999999 L 5.980481689453125 1.1099999999999999 L 5.6864816894531245 1.1099999999999999 L 5.6864816894531245 0.26849999999999985 L 5.980481689453125 0.26849999999999985 L 5.980481689453125 0.38849999999999985 Q 6.019481689453125 0.3314999999999999 6.0854816894531245 0.2962499999999999 Q 6.151481689453125 0.2609999999999999 6.236981689453125 0.2609999999999999 Q 6.382481689453125 0.2609999999999999 6.467981689453125 0.3577499999999999 M 7.121942871093751 0.29174999999999984 Q 7.18494287109375 0.2579999999999999 7.27044287109375 0.2579999999999999 Q 7.37094287109375 0.2579999999999999 7.452692871093751 0.3104999999999999 Q 7.53444287109375 0.3629999999999999 7.58169287109375 0.4604999999999999 Q 7.62894287109375 0.5579999999999998 7.62894287109375 0.6884999999999999 Q 7.62894287109375 0.819 7.58169287109375 0.9172499999999999 Q 7.53444287109375 1.0154999999999998 7.452692871093751 1.0679999999999998 Q 7.37094287109375 1.1204999999999998 7.27044287109375 1.1204999999999998 Q 7.18494287109375 1.1204999999999998 7.121942871093751 1.0867499999999999 Q 7.05894287109375 1.053 7.0244428710937505 0.9929999999999999 L 7.0244428710937505 1.1099999999999999 L 6.73044287109375 1.1099999999999999 L 6.73044287109375 -2.220446049250313e-16 L 7.0244428710937505 -2.220446049250313e-16 L 7.0244428710937505 0.38549999999999984 Q 7.05894287109375 0.3254999999999999 7.121942871093751 0.29174999999999984 M 7.286192871093751 0.5602499999999999 Q 7.241942871093751 0.5144999999999998 7.17744287109375 0.5144999999999998 Q 7.11294287109375 0.5144999999999998 7.06869287109375 0.5609999999999998 Q 7.0244428710937505 0.6074999999999998 7.0244428710937505 0.6884999999999999 Q 7.0244428710937505 0.7709999999999999 7.06869287109375 0.8174999999999999 Q 7.11294287109375 0.8639999999999999 7.17744287109375 0.8639999999999999 Q 7.241942871093751 0.8639999999999999 7.286192871093751 0.8167499999999999 Q 7.330442871093751 0.7694999999999999 7.330442871093751 0.6884999999999999 Q 7.330442871093751 0.6059999999999999 7.286192871093751 0.5602499999999999" fill="#192c36" fill-rule="nonzero"></path></g><g><path d=" M 0.3334090909090909 1.5285818181818178 L 0.3334090909090909 1.5681272727272724 L 0.2011363636363636 1.5681272727272724 L 0.2011363636363636 2.005172727272727 L 0.15340909090909088 2.005172727272727 L 0.15340909090909088 1.5681272727272724 L 0.020454545454545454 1.5681272727272724 L 0.020454545454545454 1.5285818181818178 L 0.3334090909090909 1.5285818181818178 M 0.6692178622159091 1.6438090909090906 Q 0.702967862215909 1.6615363636363631 0.7223996803977272 1.698013636363636 Q 0.7418314985795453 1.7344909090909089 0.7418314985795453 1.7869909090909086 L 0.7418314985795453 2.005172727272727 L 0.6947860440340908 2.005172727272727 L 0.6947860440340908 1.7924454545454542 Q 0.6947860440340908 1.731763636363636 0.6644451349431817 1.6997181818181815 Q 0.6341042258522727 1.667672727272727 0.5816042258522727 1.667672727272727 Q 0.5277405894886363 1.667672727272727 0.49569513494318174 1.701763636363636 Q 0.46364968039772725 1.735854545454545 0.46364968039772725 1.8019909090909088 L 0.46364968039772725 2.005172727272727 L 0.4159224076704545 2.005172727272727 L 0.4159224076704545 1.5006272727272725 L 0.46364968039772725 1.5006272727272725 L 0.46364968039772725 1.6963090909090905 Q 0.48137695312499995 1.6628999999999996 0.5158087713068181 1.6444909090909088 Q 0.5502405894886363 1.626081818181818 0.5931951349431818 1.626081818181818 Q 0.635467862215909 1.626081818181818 0.6692178622159091 1.6438090909090906 M 0.8536466841264204 1.5524454545454542 Q 0.8434194113991477 1.5422181818181815 0.8434194113991477 1.5272181818181814 Q 0.8434194113991477 1.5122181818181815 0.8536466841264204 1.5023318181818177 Q 0.8638739568536932 1.4924454545454542 0.878192138671875 1.4924454545454542 Q 0.8925103204900569 1.4924454545454542 0.9027375932173295 1.5023318181818177 Q 0.9129648659446022 1.5122181818181815 0.9129648659446022 1.5272181818181814 Q 0.9129648659446022 1.5422181818181815 0.9027375932173295 1.5524454545454542 Q 0.8925103204900569 1.562672727272727 0.878192138671875 1.562672727272727 Q 0.8638739568536932 1.562672727272727 0.8536466841264204 1.5524454545454542 M 0.9020557750355114 1.6328999999999996 L 0.9020557750355114 2.005172727272727 L 0.8543285023082386 2.005172727272727 L 0.8543285023082386 1.6328999999999996 L 0.9020557750355114 1.6328999999999996 M 1.040808438387784 1.9809681818181815 Q 1.0002402565696022 1.9513090909090904 0.995467529296875 1.900172727272727 L 1.0445584383877842 1.900172727272727 Q 1.047967529296875 1.9315363636363632 1.074217529296875 1.9509681818181814 Q 1.100467529296875 1.9703999999999997 1.1447857111150568 1.9703999999999997 Q 1.183649347478693 1.9703999999999997 1.205808438387784 1.9519909090909087 Q 1.227967529296875 1.9335818181818178 1.227967529296875 1.9063090909090905 Q 1.227967529296875 1.8872181818181815 1.2156948020241476 1.8749454545454542 Q 1.2034220747514204 1.8626727272727268 1.1846720747514206 1.855513636363636 Q 1.1659220747514205 1.8483545454545451 1.1338766202059658 1.8401727272727268 Q 1.0922857111150568 1.829263636363636 1.066376620205966 1.8183545454545451 Q 1.040467529296875 1.8074454545454541 1.0223993474786932 1.7859681818181814 Q 1.0043311656605114 1.7644909090909087 1.0043311656605114 1.728354545454545 Q 1.0043311656605114 1.7010818181818177 1.0206948020241478 1.6778999999999997 Q 1.037058438387784 1.6547181818181815 1.0670584383877841 1.6410818181818179 Q 1.0970584383877842 1.6274454545454542 1.1352402565696023 1.6274454545454542 Q 1.1952402565696023 1.6274454545454542 1.2320584383877842 1.6577863636363632 Q 1.2688766202059658 1.6881272727272725 1.2716038929332387 1.7413090909090905 L 1.2238766202059659 1.7413090909090905 Q 1.2218311656605114 1.7085818181818178 1.198308438387784 1.6884681818181815 Q 1.1747857111150568 1.668354545454545 1.1338766202059658 1.668354545454545 Q 1.0977402565696022 1.668354545454545 1.0752402565696022 1.6853999999999996 Q 1.0527402565696022 1.7024454545454542 1.0527402565696022 1.727672727272727 Q 1.0527402565696022 1.7494909090909088 1.066035711115057 1.7634681818181814 Q 1.0793311656605113 1.777445454545454 1.0991038929332386 1.7852863636363632 Q 1.118876620205966 1.7931272727272725 1.1522857111150568 1.802672727272727 Q 1.1925129838423296 1.8135818181818177 1.2163766202059658 1.8238090909090905 Q 1.2402402565696022 1.8340363636363632 1.2572857111150568 1.8538090909090905 Q 1.2743311656605114 1.8735818181818178 1.2750129838423296 1.9063090909090905 Q 1.2750129838423296 1.9363090909090905 1.258649347478693 1.9598318181818177 Q 1.242285711115057 1.9833545454545451 1.212967529296875 1.9969909090909086 Q 1.183649347478693 2.0106272727272723 1.145467529296875 2.0106272727272723 Q 1.0813766202059658 2.0106272727272723 1.040808438387784 1.9809681818181815 M 1.564783380681818 1.5524454545454542 Q 1.5545561079545454 1.5422181818181815 1.5545561079545454 1.5272181818181814 Q 1.5545561079545454 1.5122181818181815 1.564783380681818 1.5023318181818177 Q 1.5750106534090906 1.4924454545454542 1.5893288352272725 1.4924454545454542 Q 1.6036470170454544 1.4924454545454542 1.6138742897727272 1.5023318181818177 Q 1.6241015625 1.5122181818181815 1.6241015625 1.5272181818181814 Q 1.6241015625 1.5422181818181815 1.6138742897727272 1.5524454545454542 Q 1.6036470170454544 1.562672727272727 1.5893288352272725 1.562672727272727 Q 1.5750106534090906 1.562672727272727 1.564783380681818 1.5524454545454542 M 1.613192471590909 1.6328999999999996 L 1.613192471590909 2.005172727272727 L 1.565465198863636 2.005172727272727 L 1.565465198863636 1.6328999999999996 L 1.613192471590909 1.6328999999999996 M 1.7519451349431816 1.9809681818181815 Q 1.7113769531249998 1.9513090909090904 1.7066042258522724 1.900172727272727 L 1.7556951349431815 1.900172727272727 Q 1.7591042258522724 1.9315363636363632 1.7853542258522725 1.9509681818181814 Q 1.8116042258522724 1.9703999999999997 1.8559224076704544 1.9703999999999997 Q 1.8947860440340907 1.9703999999999997 1.9169451349431816 1.9519909090909087 Q 1.9391042258522724 1.9335818181818178 1.9391042258522724 1.9063090909090905 Q 1.9391042258522724 1.8872181818181815 1.9268314985795452 1.8749454545454542 Q 1.914558771306818 1.8626727272727268 1.895808771306818 1.855513636363636 Q 1.8770587713068179 1.8483545454545451 1.8450133167613634 1.8401727272727268 Q 1.8034224076704544 1.829263636363636 1.7775133167613633 1.8183545454545451 Q 1.7516042258522724 1.8074454545454541 1.7335360440340906 1.7859681818181814 Q 1.7154678622159087 1.7644909090909087 1.7154678622159087 1.728354545454545 Q 1.7154678622159087 1.7010818181818177 1.731831498579545 1.6778999999999997 Q 1.7481951349431815 1.6547181818181815 1.7781951349431815 1.6410818181818179 Q 1.8081951349431815 1.6274454545454542 1.8463769531249996 1.6274454545454542 Q 1.9063769531249997 1.6274454545454542 1.9431951349431815 1.6577863636363632 Q 1.9800133167613634 1.6881272727272725 1.982740589488636 1.7413090909090905 L 1.9350133167613635 1.7413090909090905 Q 1.9329678622159088 1.7085818181818178 1.9094451349431816 1.6884681818181815 Q 1.8859224076704542 1.668354545454545 1.8450133167613634 1.668354545454545 Q 1.8088769531249997 1.668354545454545 1.7863769531249998 1.6853999999999996 Q 1.7638769531249998 1.7024454545454542 1.7638769531249998 1.727672727272727 Q 1.7638769531249998 1.7494909090909088 1.7771724076704543 1.7634681818181814 Q 1.790467862215909 1.777445454545454 1.810240589488636 1.7852863636363632 Q 1.8300133167613635 1.7931272727272725 1.8634224076704542 1.802672727272727 Q 1.903649680397727 1.8135818181818177 1.9275133167613634 1.8238090909090905 Q 1.9513769531249996 1.8340363636363632 1.9684224076704542 1.8538090909090905 Q 1.9854678622159088 1.8735818181818178 1.986149680397727 1.9063090909090905 Q 1.986149680397727 1.9363090909090905 1.9697860440340906 1.9598318181818177 Q 1.9534224076704543 1.9833545454545451 1.9241042258522725 1.9969909090909086 Q 1.8947860440340907 2.0106272727272723 1.8566042258522724 2.0106272727272723 Q 1.7925133167613634 2.0106272727272723 1.7519451349431816 1.9809681818181815 M 2.366610884232954 1.6673318181818177 Q 2.4088836115056815 1.7085818181818178 2.4088836115056815 1.7869909090909086 L 2.4088836115056815 2.005172727272727 L 2.361838156960227 2.005172727272727 L 2.361838156960227 1.7924454545454542 Q 2.361838156960227 1.731763636363636 2.331497247869318 1.6997181818181815 Q 2.3011563387784086 1.667672727272727 2.248656338778409 1.667672727272727 Q 2.1947927024147726 1.667672727272727 2.162747247869318 1.701763636363636 Q 2.1307017933238632 1.735854545454545 2.1307017933238632 1.8019909090909088 L 2.1307017933238632 2.005172727272727 L 2.082974520596591 2.005172727272727 L 2.082974520596591 1.6328999999999996 L 2.1307017933238632 1.6328999999999996 L 2.1307017933238632 1.6963090909090905 Q 2.1484290660511363 1.6622181818181816 2.181838156960227 1.6441499999999998 Q 2.215247247869318 1.626081818181818 2.257519975142045 1.626081818181818 Q 2.324338156960227 1.626081818181818 2.366610884232954 1.6673318181818177 M 2.5418351606889202 1.4631272727272724 L 2.533653342507102 1.5947181818181815 L 2.500244251598011 1.5947181818181815 L 2.492062433416193 1.4631272727272724 L 2.5418351606889202 1.4631272727272724 M 2.690452880859375 1.6731272727272724 L 2.690452880859375 1.904263636363636 Q 2.690452880859375 1.938354545454545 2.70340742631392 1.9513090909090904 Q 2.7163619717684657 1.9642636363636359 2.7490892444957384 1.9642636363636359 L 2.792725608132102 1.9642636363636359 L 2.792725608132102 2.005172727272727 L 2.7415892444957386 2.005172727272727 Q 2.691134699041193 2.005172727272727 2.6665892444957384 1.9816499999999997 Q 2.642043789950284 1.9581272727272723 2.642043789950284 1.904263636363636 L 2.642043789950284 1.6731272727272724 L 2.5902256081321022 1.6731272727272724 L 2.5902256081321022 1.6328999999999996 L 2.642043789950284 1.6328999999999996 L 2.642043789950284 1.5394909090909088 L 2.690452880859375 1.5394909090909088 L 2.690452880859375 1.6328999999999996 L 2.792725608132102 1.6328999999999996 L 2.792725608132102 1.6731272727272724 L 2.690452880859375 1.6731272727272724 M 3.167388028231534 1.645172727272727 Q 3.1997743918678974 1.626081818181818 3.246819846413352 1.626081818181818 L 3.246819846413352 1.675854545454545 L 3.2338653009588065 1.675854545454545 Q 3.1820471191406248 1.675854545454545 3.1506834827769885 1.7038090909090906 Q 3.119319846413352 1.731763636363636 3.119319846413352 1.7972181818181814 L 3.119319846413352 2.005172727272727 L 3.0715925736860794 2.005172727272727 L 3.0715925736860794 1.6328999999999996 L 3.119319846413352 1.6328999999999996 L 3.119319846413352 1.6990363636363632 Q 3.1350016645951704 1.664263636363636 3.167388028231534 1.645172727272727 M 3.6606831498579546 1.8374454545454542 L 3.351819513494318 1.8374454545454542 Q 3.3538649680397725 1.8797181818181814 3.3722740589488636 1.9097181818181814 Q 3.3906831498579546 1.9397181818181815 3.4206831498579544 1.9550590909090906 Q 3.4506831498579547 1.9703999999999997 3.4861376953125 1.9703999999999997 Q 3.5325013316761362 1.9703999999999997 3.5642058771306817 1.9478999999999995 Q 3.595910422585227 1.9253999999999996 3.6061376953125 1.8872181818181815 L 3.6565922407670453 1.8872181818181815 Q 3.6429558771306816 1.941763636363636 3.598296786221591 1.976195454545454 Q 3.5536376953125 2.0106272727272723 3.4861376953125 2.0106272727272723 Q 3.4336376953125 2.0106272727272723 3.392046786221591 1.987104545454545 Q 3.3504558771306816 1.9635818181818179 3.3269331498579544 1.9202863636363632 Q 3.303410422585227 1.8769909090909087 3.303410422585227 1.8190363636363633 Q 3.303410422585227 1.7610818181818177 3.326592240767045 1.7174454545454543 Q 3.3497740589488636 1.6738090909090906 3.3913649680397726 1.6506272727272724 Q 3.4329558771306816 1.6274454545454542 3.4861376953125 1.6274454545454542 Q 3.539319513494318 1.6274454545454542 3.579205877130682 1.6506272727272724 Q 3.6190922407670456 1.6738090909090906 3.6405695134943183 1.7130136363636361 Q 3.662046786221591 1.7522181818181815 3.662046786221591 1.7999454545454543 Q 3.662046786221591 1.8244909090909087 3.6606831498579546 1.8374454545454542 M 3.5969331498579544 1.727672727272727 Q 3.5795467862215906 1.6983545454545452 3.549546786221591 1.683354545454545 Q 3.519546786221591 1.668354545454545 3.4840922407670454 1.668354545454545 Q 3.430910422585227 1.668354545454545 3.393410422585227 1.7024454545454542 Q 3.3559104225852274 1.7365363636363633 3.351819513494318 1.7985818181818178 L 3.6136376953125 1.7985818181818178 Q 3.6143195134943182 1.7569909090909088 3.5969331498579544 1.727672727272727 M 3.757166748046875 1.7177863636363633 Q 3.780007657137784 1.6744909090909088 3.820575838955966 1.6509681818181814 Q 3.8611440207741476 1.6274454545454542 3.912280384410511 1.6274454545454542 Q 3.965462202592329 1.6274454545454542 4.003984929865057 1.6519909090909088 Q 4.042507657137784 1.6765363636363633 4.059553111683238 1.7147181818181814 L 4.059553111683238 1.6328999999999996 L 4.107280384410511 1.6328999999999996 L 4.107280384410511 2.005172727272727 L 4.059553111683238 2.005172727272727 L 4.059553111683238 1.9226727272727269 Q 4.041825838955965 1.960854545454545 4.0033031116832385 1.9857409090909086 Q 3.964780384410511 2.0106272727272723 3.911598566228693 2.0106272727272723 Q 3.8611440207741476 2.0106272727272723 3.820575838955966 1.986763636363636 Q 3.780007657137784 1.9628999999999996 3.757166748046875 1.919263636363636 Q 3.7343258389559657 1.8756272727272723 3.7343258389559657 1.8183545454545451 Q 3.7343258389559657 1.7610818181818177 3.757166748046875 1.7177863636363633 M 4.041144020774148 1.7399454545454542 Q 4.022734929865057 1.705854545454545 3.9910303844105113 1.6874454545454542 Q 3.959325838955966 1.6690363636363632 3.9211440207741477 1.6690363636363632 Q 3.881598566228693 1.6690363636363632 3.8502349298650564 1.686763636363636 Q 3.81887129350142 1.7044909090909086 3.8008031116832384 1.7382409090909088 Q 3.7827349298650566 1.7719909090909087 3.7827349298650566 1.8183545454545451 Q 3.7827349298650566 1.8640363636363633 3.8008031116832384 1.8984681818181814 Q 3.81887129350142 1.9328999999999996 3.8502349298650564 1.9509681818181814 Q 3.881598566228693 1.9690363636363633 3.9211440207741477 1.9690363636363633 Q 3.959325838955966 1.9690363636363633 3.9910303844105113 1.9506272727272724 Q 4.022734929865057 1.9322181818181814 4.041144020774148 1.8981272727272724 Q 4.059553111683238 1.8640363636363633 4.059553111683238 1.8190363636363633 Q 4.059553111683238 1.7740363636363632 4.041144020774148 1.7399454545454542 M 4.270908425071023 1.5006272727272725 L 4.270908425071023 2.005172727272727 L 4.22318115234375 2.005172727272727 L 4.22318115234375 1.5006272727272725 L 4.270908425071023 1.5006272727272725" fill="#800000" fill-rule="nonzero"></path></g><g clip-path="url(#SvgjsClipPath1002)"><g clip-path="url(#SvgjsClipPath1000e76c334e-4f76-4fb6-9434-7c2269a0a827)"><path d=" M -0.7261219583534317 0.5005984242769341 L -2.159026770896708 1.5827466180848053 L -2.159026770896708 2.0541078128729184 L -2.5131053508909917 2.0541078128729184 L -2.5131053508909917 1.4080636029340774 L -1.0193912649548171 0.2799583927570141 Z" fill="#ed1c24" transform="matrix(1,0,0,1,0,0)" fill-rule="evenodd"></path></g><g clip-path="url(#SvgjsClipPath1000e76c334e-4f76-4fb6-9434-7c2269a0a827)"><path d=" M -1.456557503877558 2.0541078128729184 L -0.3999999999999999 2.0541078128729184 L -0.3999999999999999 0.7459503710918243 L -0.5845137028296177 0.6071426061641574 L -0.8784300193273542 0.8291056280691542 L -0.7540785799942831 0.9226613277087279 L -0.7540785799942831 1.700029232878635 L -1.9771011076524956 1.700029232878635 L -1.9771011076524956 2.0541078128729184 L -1.456557503877558 2.0541078128729184 Z" fill="#0062af" transform="matrix(1,0,0,1,0,0)" fill-rule="evenodd"></path></g><g clip-path="url(#SvgjsClipPath1000e76c334e-4f76-4fb6-9434-7c2269a0a827)"><path d=" M -1.164785011215493 0.17057509281714486 L -1.456557503877558 -0.04893508560019159 L -2.5131053508909917 0.7459503710918243 L -2.5131053508909917 1.1888527873046049 L -1.164785011215493 0.17057509281714486 Z" fill="#00aeef" transform="matrix(1,0,0,1,0,0)" fill-rule="evenodd"></path></g></g></g><defs><clipPath id="SvgjsClipPath1002"><path d=" M -2.5131053508909917 -0.048935085600191774 h 2.113105350890992 v 2.1030428984731104 h -2.113105350890992 Z"></path></clipPath><clipPath id="SvgjsClipPath1000e76c334e-4f76-4fb6-9434-7c2269a0a827"><path d=" M -2.5131053508909917 -0.04893508560019159 L -0.3999999999999999 -0.04893508560019159 L -0.3999999999999999 2.0541078128729184 L -2.5131053508909917 2.0541078128729184 Z"></path></clipPath></defs></svg>